<svg id="Group_210" data-name="Group 210" xmlns="http://www.w3.org/2000/svg" xmlns:xlink="http://www.w3.org/1999/xlink" width="122.074" height="112.061" viewBox="0 0 122.074 112.061">
  <defs>
    <clipPath id="clip-path">
      <rect id="Rectangle_824" data-name="Rectangle 824" width="122.074" height="112.061" fill="#575757"/>
    </clipPath>
  </defs>
  <g id="Group_209" data-name="Group 209" clip-path="url(#clip-path)">
    <path id="Path_351" data-name="Path 351" d="M47.027,185.091,32.475,195.159c-.718,3.209,3.08,2.482,5.211,2.507v29.1h3.593v-29.1h38.8v29.1h3.593v-29.1l4.313-.178c1.6-1.365,1.047-2.411-.382-3.573-3.9-3.166-9.953-5.269-13.631-8.824h42.575a2.356,2.356,0,0,1,1.982,2.33l-.008,39.349c1.144-.046,2.5-.126,3.2.939.693.965.274,1.881-.475,2.679l-119.958.263c-2.489-1.771-1.045-3.813,1.568-4.089l-.026-39.141a2.356,2.356,0,0,1,1.982-2.33ZM12.262,199.015c.706.709,2.744.507,3.089-.51.009-1.489.682-5.364-1.275-5.818-2.861-.665-2.74,5.4-1.814,6.328M22.5,192.7c-2.85.432-2.273,8.277,1.178,6.59,1.721-.842,1.682-7.024-1.178-6.59m75.809,0c-2.85.432-2.273,8.277,1.178,6.59,1.721-.842,1.682-7.024-1.178-6.59m8.089.389-.373,5.407.9.91c3.337.468,2.681-3.141,2.549-5.439l-1.628-1.263ZM57.088,226.768V207.906a8.156,8.156,0,0,0-1.818-2.852,5.261,5.261,0,0,0-6.427-.363,8.36,8.36,0,0,0-2.174,2.856v19.222Zm17.605,0V207.906c0-2.122-3.167-4.16-5.21-4.16s-5.21,2.038-5.21,4.16v18.863ZM7.865,212.936c-.585,4.144.434,9.546,0,13.833H18.285V211.5a14.68,14.68,0,0,0-1.2-1.852c-3.2-3.35-8.58-1.222-9.216,3.289m24.791,13.833V212.576c0-2.911-3.891-4.951-6.565-4.408-1.205.245-3.854,2.568-3.854,3.689v14.91Zm66.468,0V212.217c0-2.151-3.139-4.162-5.21-4.162s-5.21,2.011-5.21,4.162v14.551Zm14.012,0V211.5a10.984,10.984,0,0,0-2.544-2.846,5.591,5.591,0,0,0-6.441,1.046,9.691,9.691,0,0,0-1.434,3.6v12.934l.539.539Z" transform="translate(0 -118.59)" fill="#575757"/>
    <path id="Path_352" data-name="Path 352" d="M155.306,121.271h-8.264V104.564a17.455,17.455,0,0,0-.88-2.354c-2.793-5.963-11.568-6.075-14.636-.228a21.542,21.542,0,0,0-1.011,2.222v17.066h-8.623V91.63l.539-.539h32.7l.539.539v28.384c0,.193-.555.8-.359,1.258" transform="translate(-78.098 -58.363)" fill="#575757"/>
    <path id="Path_353" data-name="Path 353" d="M143.138,7.578A15.4,15.4,0,0,1,155.059,15.6a27.78,27.78,0,0,1,1.731,4.736v8.8h-30.9V19.973a22.511,22.511,0,0,1,2.086-5.1,15.908,15.908,0,0,1,11.172-7.33c.04-2.889-.747-10.1,3.988-6.612Z" transform="translate(-80.661 0)" fill="#575757"/>
    <path id="Path_354" data-name="Path 354" d="M153.977,186.993H115.892l19.2-12.953Z" transform="translate(-74.254 -111.51)" fill="#575757"/>
    <path id="Path_355" data-name="Path 355" d="M80.844,112h8.623v16.886H76.892V104.634A2.791,2.791,0,0,1,78.529,103c3.725-.531,1.9,6.794,2.315,9m1.163,2.6a3.47,3.47,0,0,0-.459,1.874,55.707,55.707,0,0,0,.024,8.629c.352,1.883,3.186,2.384,3.573.359a72.195,72.195,0,0,0,0-10.04c-.3-1.59-1.986-1.524-3.138-.822" transform="translate(-49.266 -65.978)" fill="#575757"/>
    <path id="Path_356" data-name="Path 356" d="M238.467,129.041H225.892V112.154h8.623V104.43c0-1.759,3.952-1.572,3.952.359Zm-7.292-14.672a1.617,1.617,0,0,0-.786.666c-.77,1-.737,7.924-.553,9.523.342,2.974,3.329,3.155,3.884.633a49.447,49.447,0,0,0,.085-8.554c-.169-1.461-.974-2.766-2.63-2.268" transform="translate(-144.732 -66.133)" fill="#575757"/>
    <path id="Path_357" data-name="Path 357" d="M165.233,137.483l-4.555-2.818-4.786,2.818V123.65a16.572,16.572,0,0,1,.772-1.743,4.613,4.613,0,0,1,7.655-.217,13.993,13.993,0,0,1,.914,1.96Z" transform="translate(-99.882 -76.731)" fill="#575757"/>
  </g>
</svg>
