<svg xmlns="http://www.w3.org/2000/svg" xmlns:xlink="http://www.w3.org/1999/xlink" width="20.599" height="56.925" viewBox="0 0 20.599 56.925">
  <defs>
    <clipPath id="clip-path">
      <rect id="Rectangle_772" data-name="Rectangle 772" width="20.599" height="56.925" transform="translate(0 0)" fill="#575757"/>
    </clipPath>
  </defs>
  <g id="Group_176" data-name="Group 176" transform="translate(0 -0.001)">
    <g id="Group_175" data-name="Group 175" transform="translate(0 0.001)" clip-path="url(#clip-path)">
      <path id="Path_257" data-name="Path 257" d="M1.386,40.826c.007-.337.016-.671.021-1.005,0-.138-.012-.263.135-.367.069-.049.061-.205.088-.313.054-.21.111-.419.162-.63a3.437,3.437,0,0,0,.11-.535c.012-.167.063-.259.284-.271l.078.67c.231.076.275.263.255.489a1.337,1.337,0,0,0,0,.382.959.959,0,0,0,.178.36c.063.413,0,.843.08,1.29l.486-.035V37.942l.685-.033V32.338l-.761-.045V30.387l-.531-.059V29.295h1.3V22.776H2.879c-.072-.236.012-.313.182-.322.277-.016.555-.027.895-.043.052-1.851.02-3.691.042-5.574H5.031A40.633,40.633,0,0,0,5.055,11.8l-.927-.052V10.559H5.1c.056-1.2,0-2.353.026-3.511L5.411,6.9a1.61,1.61,0,0,0-.1-.354.537.537,0,0,1,.033-.555,5.967,5.967,0,0,0,.271-.728c.1-.041.2-.024.215.138a1.444,1.444,0,0,0,.264.741c.057.083,0,.261-.037.388a1.892,1.892,0,0,1-.159.325c.312.1.332.311.325.556-.012.427,0,.854,0,1.311H7.4c.04-1.545-.021-3.072.008-4.649h2.37V2.583l.249-.192a.581.581,0,0,0-.051-.167.376.376,0,0,1,.062-.533A.558.558,0,0,0,10.2,1.22c0-.394,0-.788,0-1.219l.293.016c0,.4,0,.773,0,1.144a.658.658,0,0,0,.158.507.476.476,0,0,1-.016.707l.333.179V4.042h2.275V8.729h1.225a3.029,3.029,0,0,0,.042-.308c.012-.36.018-.721.025-1.081,0-.15-.006-.286.157-.391s.114-.27.023-.4a.478.478,0,0,1,.035-.575,4.375,4.375,0,0,0,.265-.71c.1-.03.218.016.2.181a.755.755,0,0,0,.2.571.469.469,0,0,1,.046.494,3.58,3.58,0,0,0-.107.408c.279.074.3.254.293.468-.01.9-.007,1.79-.008,2.686,0,.138,0,.276,0,.463h.931v1.222l-.9.048v5.014h1.017v5.613l1.125.05.022.285h-1.1v6.516H18.1v1.039l-.514.056c-.061.623,0,1.255-.025,1.925h-.831v5.6l.582.044v2.925h.569V39.557l.377-.1c.1-.168.034-.319-.041-.483a.424.424,0,0,1,.179-.625c.147-.191-.075-.483.252-.652.028.125.057.218.069.313a.579.579,0,0,0,.209.449.4.4,0,0,1,.039.513.512.512,0,0,0-.032.507l.346.057v1.333l.541.049c.241.455.5.935.748,1.416a.3.3,0,0,1,.033.134c0,.6,0,1.2,0,1.849H19.39l-.062.737-.447.1V55.364l.442.087v1.439H17.348V44.357h-.785l-.075.887-.34.023a2.963,2.963,0,0,0-.055.409c.01,2.034.029,4.068.038,6.1,0,.848-.014,1.7-.014,2.543,0,.335.018.669.029,1.02l.347.089v1.462H13.6V55.461c.061-.015.125-.032.189-.046s.11-.018.189-.031v-10.1l-.371-.1-.047-.832h-6.5L7,45.2l-.322.075c-.078.237-.112,9.7-.036,10.093l.373.087V56.9h-2.9V55.46l.379-.089V45.293l-.371-.113v-.821H3.373V56.9H1.436V55.468l.411-.109c.025-3.385,0-6.784.013-10.2L1.424,45.1l-.054-.766H.044a2.653,2.653,0,0,1-.031-.271c-.006-.488,0-.976-.013-1.464a.843.843,0,0,1,.17-.551c.146-.2.273-.4.4-.613a1.318,1.318,0,0,1,.816-.607M12.281,37.9V31.878l.257-.171v-1H8.188v1.039c.217,0,.224.155.222.314,0,.371-.01.741-.01,1.112q0,2.2,0,4.391c0,.111.018.221.028.345Zm.564-8.374v-5.8H7.831V29.5l-.865.048v.773a4.56,4.56,0,0,0,1.714-.131V26.42H12c.017,1.283-.017,2.54.013,3.775a1.978,1.978,0,0,1,.528.079,2.6,2.6,0,0,0,1.139.082v-.826ZM6.738,12.13h7.279V10.84H6.738ZM6.726,10.35h7.242a2.747,2.747,0,0,0-.025-1.261H6.726ZM12.8,19.7a2.468,2.468,0,0,0-4.937.009A2.468,2.468,0,1,0,12.8,19.7m1.132,20.916c-.052-.09-.061-.13-.085-.142-.454-.232-.911-.457-1.364-.69-.659-.338-1.319-.674-1.972-1.024a.414.414,0,0,0-.426-.013c-.389.207-.776.419-1.167.622-.7.363-1.4.721-2.1,1.085-.041.021-.064.074-.142.167,2.448,0,4.83.015,7.257,0M5,36.016l0-.11,1.155-.033v-1.6H4.224v3.344H6.139V36.031A5.887,5.887,0,0,1,5,36.016M7.6,13.373c-.042.9-.038,1.8-.005,2.709a8.389,8.389,0,0,0,1.326-.016V13.373Zm9.367,25.649H14.647a7.852,7.852,0,0,0,.015,1.573h2.3ZM3.607,40.6H5.866V39.018H3.607ZM13.07,13.386H11.76v2.678h1.31Zm-3.4,2.668h1.3V13.377a11.207,11.207,0,0,0-1.3,0Zm4.822,8.719a13.785,13.785,0,0,0,0,1.6h1.938v-1.6Zm.01-4.255h1.928v-1.59H14.5ZM14.5,29.981h1.929V28.4H14.5ZM4.235,26.371h1.91v-1.6H4.235Zm0-5.863H6.144V18.922H4.234ZM14.508,34.266a7.456,7.456,0,0,0,.007,1.594H16.43V34.266ZM4.222,28.4a12.14,12.14,0,0,0,0,1.587H6.151V28.4ZM14.5,22.278H16.43V20.742H14.5Zm0,15.323h1.932V36.079H14.5ZM16.43,17.173H14.5v1.49H16.43ZM16.436,32.5H14.5V34h1.935ZM4.226,34.025H6.15V32.483H4.226ZM6.153,17.167H4.223v1.489h1.93Zm10.291,9.444H14.5v1.516h1.945Zm-.009-3.628H14.5V24.5h1.932ZM6.164,26.6H4.233V28.13H6.164ZM6.15,20.742H4.231v1.524H6.15ZM6.1,30.629H4.4v1.325c.582-.013,1.131.024,1.7-.026Zm10.192.014h-1.66a3.021,3.021,0,0,0,.041,1.289H16.3Zm-6.25-3.553H9.325v2.357h.721Zm1.243,0h-.727v2.357h.727Zm3.157,3.557H13.408v1.278h1.039Zm-7.07,0H6.326v1.328l1.05-.086Zm9.592,7.6H14.664v.546h2.305Zm-11.094.009h-2.3l.035.539H5.875ZM13.3,25.59v1.149h.517c0-.328,0-.627,0-.926a1.981,1.981,0,0,0-.029-.223Zm.5,8.955H13.31V35.71H13.8ZM6.861,26.751h.494V25.562l-.494.032Zm6.445,6.863h.482V32.7h-.482Zm0-9.909v.941h.475v-.915l-.475-.026m0,13v.874l.484-.026V36.71ZM6.877,24.641l.462.03a2.446,2.446,0,0,0,0-.933H6.877Zm0,12.907h.489V36.7H6.876Zm0-8.948h.464V27.72H6.875Zm6.444,0h.457v-.888h-.457Z" transform="translate(0 -0.001)" fill="#575757"/>
      <path id="Path_258" data-name="Path 258" d="M111,659.829h5.1v10.835c-1.7.02-3.386.009-5.1.008Zm3.444,10.256c0-1.353.006-2.668,0-3.981h-1.709v3.981Zm-.013-4.406v-2.528h-1.674a10.518,10.518,0,0,0,.027,2.528Zm-2.038.427h-.857v4h.857Zm3.266,3.991c.02-1.364.022-2.679,0-4H114.8v4Zm-3.256-6.941h-.883c-.008.853-.022,1.679.005,2.519h.877Zm2.392,2.517h.85v-2.515h-.85Z" transform="translate(-103.252 -613.752)" fill="#575757"/>
      <path id="Path_259" data-name="Path 259" d="M131,474.9v3.538h-2.617a3.719,3.719,0,0,1-.044-.384c-.01-.94-.019-1.881-.021-2.822,0-.34.076-.409.414-.408.6,0,1.208.005,1.812.016a4.286,4.286,0,0,1,.457.06" transform="translate(-119.36 -441.669)" fill="#575757"/>
      <rect id="Rectangle_771" data-name="Rectangle 771" width="3.277" height="0.763" transform="translate(8.692 25.009)" fill="#575757"/>
      <path id="Path_260" data-name="Path 260" d="M121.074,256.964a1.913,1.913,0,0,1,1.91-1.86,1.883,1.883,0,0,1,1.853,1.911,1.882,1.882,0,1,1-3.763-.051m1.863-1.459c-.253.025-.254.16-.258.289a6.14,6.14,0,0,1-.013.7,1.2,1.2,0,0,0,.415,1.084,3.212,3.212,0,0,0,.356.324.217.217,0,0,0,.211-.022.223.223,0,0,0,.017-.214,2.3,2.3,0,0,0-.315-.368.9.9,0,0,1-.326-.8,3.171,3.171,0,0,0-.007-.625,2.482,2.482,0,0,0-.081-.363" transform="translate(-112.619 -237.29)" fill="#575757"/>
    </g>
  </g>
</svg>
