<svg id="Group_15" data-name="Group 15" xmlns="http://www.w3.org/2000/svg" style='width: 50px; height: 50px' viewBox="0 0 29.005 28.08">
            <defs>
                <clipPath id="clip-path">
                    <rect id="Rectangle_8" data-name="Rectangle 8" style='width: 50px; height: 50px'  fill="#707070" stroke="#707070" stroke-width="0.1"  />
                </clipPath>
            </defs>
            <g id="Group_4" data-name="Group 4" clip-path="url(#clip-path)">
                <path id="Path_5" data-name="Path 5" d="M13.017,8.875c-.362-.039-.76-.085-.717-.52.064-.65.644-.406,1.056-.5V5.916c-.2,0-.4.013-.589,0a.462.462,0,0,1-.474-.479.445.445,0,0,1,.482-.463c.286-.01.573,0,.935,0,0-.248,0-.464,0-.679a8.356,8.356,0,0,1,.034-1.059,1.965,1.965,0,0,1,1.436-1.6c0-.352,0-.7,0-1.057.007-.38.188-.588.489-.576.285.011.445.207.451.574s0,.705,0,.981a8.624,8.624,0,0,1,.943.666,1.766,1.766,0,0,1,.525,1.355c0,.443,0,.887,0,1.388h.7c.488,0,.725.153.73.464s-.248.484-.713.489c-.115,0-.229,0-.366,0V7.887c.171,0,.335,0,.5,0,.343.011.584.193.575.461a.474.474,0,0,1-.5.492c-.064,0-.126.019-.216.033-.011.121-.028.235-.031.349a60.893,60.893,0,0,0,1.5,15.256c.089.393.115.412.458.24a3.321,3.321,0,0,1,2.264-.192,5.552,5.552,0,0,1,.98.28c.171.072.384.245.411.4a.751.751,0,0,1-.252.519c-.265.269-.585.484-.859.746a3.6,3.6,0,0,0-.5.606,1.412,1.412,0,0,0,.059,1.785,5.952,5.952,0,0,0,2.263,1.654,1.017,1.017,0,0,0,.425.041q2.733,0,5.466,0a2.591,2.591,0,0,1,.353.008c.278.039.473.184.468.484a.442.442,0,0,1-.484.457c-.1,0-.21,0-.315,0H.81A3.609,3.609,0,0,1,.418,31.5.427.427,0,0,1,0,31.1a.432.432,0,0,1,.342-.5,1.65,1.65,0,0,1,.428-.037c1.822,0,3.644.007,5.466-.011a1.661,1.661,0,0,0,.813-.208,10.352,10.352,0,0,0,1.6-1.122,1.547,1.547,0,0,0,.15-2.446c-.309-.367-.719-.647-1.056-.993a1.043,1.043,0,0,1-.33-.568c-.018-.288.268-.373.516-.45a4.864,4.864,0,0,1,2.314-.3,3.087,3.087,0,0,1,.852.278c.326.167.385,0,.434-.255.238-1.235.507-2.464.715-3.7a59.085,59.085,0,0,0,.79-11.434c0-.154-.016-.308-.024-.474m4.5,21.661c-.028-.1-.041-.178-.069-.248a6.677,6.677,0,0,1-.315-4.383.463.463,0,0,0-.161-.378,2.687,2.687,0,0,0-2.618-.031.366.366,0,0,0-.181.458,6.381,6.381,0,0,1-.234,4.119c-.054.144-.1.292-.154.463Zm5.086.02a3.733,3.733,0,0,1-1.57-2.494,3.448,3.448,0,0,1,1.356-2.578,2.9,2.9,0,0,0-1.5-.013.83.83,0,0,0-.607.6,5.866,5.866,0,0,0,.431,4.3.324.324,0,0,0,.22.176c.556.015,1.113.008,1.67.008m-13.986,0c.633,0,1.168.008,1.7-.008a.359.359,0,0,0,.267-.164A5.738,5.738,0,0,0,10.99,26a.728.728,0,0,0-.254-.375,2.426,2.426,0,0,0-1.808-.154c1.921,1.859,1.729,3.488-.315,5.083m2.951,0c.368,0,.679.011.988-.008a.324.324,0,0,0,.227-.164,5.814,5.814,0,0,0,.448-4.264A.811.811,0,0,0,11.9,25.7a6.788,6.788,0,0,1-.338,4.862m7.844-4.891c-.737-.326-1.166-.139-1.371.57a5.874,5.874,0,0,0,.487,4.152.324.324,0,0,0,.228.162c.308.019.619.008.986.008a6.791,6.791,0,0,1-.33-4.892M16.93,5.95H14.366V7.868H16.93ZM16.6,4.944c0-.566.041-1.116-.013-1.656a.959.959,0,0,0-1.869,0c-.052.54-.012,1.089-.012,1.655ZM14.2,21.928l.159-3.7H13.6l-.555,3.7Zm4.052,0c-.018-.147-.03-.262-.047-.376-.145-.971-.31-1.939-.426-2.913-.043-.358-.176-.485-.515-.43-.1.016-.2.023-.329.038l.164,3.681Zm-2.924-3.7c-.058,1.241-.114,2.46-.171,3.692h.985L15.97,18.23Zm-2.5,4.679-.325,1.6.91.3c.2.066.588-.125.61-.339.053-.514.07-1.032.1-1.563Zm4.333,0c.029.517.048.987.086,1.455a.538.538,0,0,0,.6.453c.308-.1.613-.208.935-.318l-.333-1.591Zm-3.2-9.365-.259,3.68h.71v-3.68Zm3.359,0h-.44v3.684h.7l-.258-3.684M15.425,17.22h.452V13.548h-.452Zm-1.407-4.665h.446V8.861h-.446Zm2.812,0h.45V8.863h-.45ZM15.006,24.225H16.3l-.078-1.3H15.083l-.077,1.3M15.83,8.894c-.294-.113-.391-.015-.388.274.011,1.032,0,2.064.018,3.1,0,.106.1.284.18.3.247.051.21-.16.21-.311q.006-1.548.006-3.1a2.491,2.491,0,0,0-.027-.264" transform="translate(0 0)" fill="#707070" stroke="#707070" stroke-width="0.1" />
            </g>
        </svg>
