<svg xmlns="http://www.w3.org/2000/svg" width="27.496" height="55.017" viewBox="0 0 27.496 55.017">
  <g id="Sialkot" transform="translate(-201 -612)">
    <path id="Path_261" data-name="Path 261" d="M38.082,344.623c.679.15,1.355.312,2.036.449,1.49.3,2.983.586,4.476.876.12.023.245.019.365.042.051.01.094.059.166.107a1.869,1.869,0,0,0-.52.284,5.115,5.115,0,0,0-.266.522l-.091-.413c-.1.074-.173.132-.25.187s-.141.1-.248.168l.369.15.122,2.667.232.042-.23.209.311-.067c.158-.186.276-.31.375-.448a.62.62,0,0,0,.115-.272,4.861,4.861,0,0,0,.028-.607A.317.317,0,0,0,45,348.3c-.209-.182-.156-.381-.058-.582.116-.236.146-.532.464-.654a1.588,1.588,0,0,1,.487.911c.018.056-.019.131-.036.2a3.218,3.218,0,0,0-.125.472c-.069.671.224.99.888,1.241a2.437,2.437,0,0,1,.074.428c.007,1.125,0,2.25,0,3.419-.971-.05-1.94.1-2.94,0a1.012,1.012,0,0,1,.047-.3c.113-.2.178-.381-.016-.578a.248.248,0,0,1,.027-.237c.157-.163.091-.3-.013-.443a2.5,2.5,0,0,1-.142-.262l.254-.132a1.127,1.127,0,0,0-.09-.311c-.188-.292-.2-.287.074-.554-.291-.231-.218-.512-.059-.77-.281-.33-.281-.33-.065-.6.053-.245-.387-.506.059-.737a.867.867,0,0,1-.14-.2c-.033-.1-.087-.238-.044-.3.153-.229.155-.407-.08-.572-.028-.02-.026-.08-.042-.136l.272-.156a.707.707,0,0,1-.092-.922l-.415-.089-.161.308-.156-.292-.372-.086-.123.228-.161-.3-.584.089-.054-.24c-.163.066-.38-.085-.467.177l-.368-.372-.261.273-.121-.3-.368-.088-.2.176-.067-.28h-.37l-.194.223-.11-.3-.358-.08-.139.235-.139-.232-.408-.095-.163.28-.138-.32-.369-.108-.1.2-.218-.292-.217.066-.089-.163c-.023.011-.054.015-.057.027-.048.2-.228.25-.378.305-.643.237-.743.508-.635,1.243a2.008,2.008,0,0,0,.319,0,.331.331,0,0,1,.4.168.287.287,0,0,1-.132.4c-.016.009-.022.037-.033.058l.158.5-.064.048.51.118.017-.047-.3-.165.013-.048c.231.028.464.048.693.089.061.011.11.089.164.136l-.224.18v4.231H34.32v-4.233l.747-.247-.022-.073-.952.228-.033-.1,1.182-.431c.036-.314.082-.568.087-.823a1.02,1.02,0,0,0-.1-.455.917.917,0,0,1,.033-.81.7.7,0,0,0,.039-.4l-.145.41-.2-.331-.148.135-.2-.094-.125.318-.184-.175-.371.113-.093.3-.222-.312-.166.133-.2-.106-.1.422-.17-.26-.378.05-.1.327-.21-.333-.122.183-.225-.169-.125.353-.161-.213-.378.2-.1.25-.235-.282-.422.308-.117-.138-.352.052-.08.215-.524-.119-.16.275-.121-.169h-.414l-.04.308c-.2-.1-.357-.289-.633-.162a1.415,1.415,0,0,0,.052.287c.06.153.108.269-.053.415s-.045.3.15.38a.652.652,0,0,1-.1.184.331.331,0,0,0-.06.5c.041.061.056.212.021.239-.262.2-.137.357.041.514l-.2.486c.2.166.262.332.04.527-.042.037-.021.166,0,.246.03.135.08.266.117.384l-.272.235.289.212-.3.62.235.136c.093.211-.092.254-.2.35.014.149-.03.307.137.419.029.019.012.183-.033.22-.187.153-.137.3-.042.475a3.759,3.759,0,0,1,.157.393H26.947c.1.227.267.222.431.215q.81-.035,1.62-.074,1.84-.092,3.679-.187c.067,0,.134-.013.222-.021.043-.24.24-.295.441-.323.547-.075,1.1-.139,1.643-.208.245-.031.489-.067.746-.1l.1-.3,2.9.437.12.29c.141.023.283.05.427.069,1.418.186,2.837.365,4.253.557a7.38,7.38,0,0,0,1.512.035,7.864,7.864,0,0,1,1.473.129c.391.048.779.121,1.167.187.334.057.428.229.312.6l-.316-.091-.184.325c-.283.078-.3-.191-.41-.341l-.071.026c.019.146.034.292.058.437a3.6,3.6,0,0,1,.092.49q.052,2.044.085,4.088c.009.525,0,1.05,0,1.558l-.464.265c0-.109-.028-.2,0-.236.284-.355.286-.367-.085-.6a.864.864,0,0,1,.114-.171c.18-.166.187-.184.007-.359-.128-.125-.209-.229-.034-.388s.177-.209-.047-.363a1.465,1.465,0,0,0-.2-.09l.3-.249c.164-.294-.159-.363-.229-.554.091-.1.237-.182.247-.282s-.135-.192-.228-.28c-.095-.235.381-.28.172-.584-.29-.242-.292-.186.053-.505a.688.688,0,0,0-.137-.19.231.231,0,0,1-.043-.393c.166-.171.1-.253-.04-.408s-.251-.374-.471-.288l-.367.465a.38.38,0,0,0,.066.146c.249.27.249.307-.04.52-.055.214.085.3.347.349l-.334.324a1.979,1.979,0,0,0,.119.311,1.522,1.522,0,0,0,.214.237l-.275.154c0,.2,0,.2.259.435-.169.127-.33.269-.2.522l.27.246-.272.148a.243.243,0,0,0,.119.338c.136.073.121.2.021.308-.2.225-.2.232.014.43a.926.926,0,0,1,.1.145l-.222.176v.946l.234.268-.611.475.415.612c-.47-.054-.877.193-1.3-.153-.062-2.689-.125-5.42-.188-8.148-.346-.14-.166.292-.386.307l-.071-.289-.419-.11-.077.236H43.54l-.03-.283-.531-.025-.055.272h-.049l-.075-.339h-.479l-.1.226-.085-.322-.482-.064-.125.267-.069-.277-1.1-.194-.094.253-.069,0-.059-.383-.257.15-.209-.245-.126.429-.058,0-.047-.41-.258.129-.22-.185-.159.31-.088-.365-.268.121-.206-.261-.088.453-.225-.272-.085.014a8.98,8.98,0,0,0-.121,1.047c0,1.847.014,3.694.017,5.541,0,.573-.024,1.145-.039,1.757-.633.033-1.23-.12-1.83-.1s-1.183.089-1.825.14c0-.166,0-.286,0-.406,0-2.185,0-4.371-.008-6.556,0-.319-.062-.638-.1-.957l-.075-.017-.272.319-.042-.511-.212.186-.273-.128-.092.366-.171-.4-.219.242-.225-.273-.1.514-.059,0c-.012-.065-.026-.13-.035-.2s-.016-.147-.031-.288l-.226.257-.27-.225-.078.439-.059,0-.083-.429-.2.235-.241-.166-.093.162-.149-.171-.168.12-.263-.11-.028.33-.061.008-.095-.346-.224.176-.261-.187-.058.342-.059.016-.071-.242h-.493l-.037.288-.067.015-.091-.314-1.03.073-.163.273-.231-.357-.1.03c-.076,2.885-.152,5.77-.229,8.673-.426,0-.834-.009-1.243,0s-.806.044-1.257.071c0-.138,0-.245,0-.353q.04-4.038.084-8.076a1.373,1.373,0,0,1,.08-.311,2.543,2.543,0,0,0,.086-.43c-.413.372-.494.223-.663-.086l-.312.03-.025-.309c.286-.034.55-.072.814-.1.4-.038.434-.045.472-.441.04-.413.06-.829.066-1.244.01-.731,0-1.463,0-2.176l.765-.3-.193-.123c.017-.031.023-.061.039-.068a.452.452,0,0,0,.279-.391,2.076,2.076,0,0,0-.049-.927,1.122,1.122,0,0,1,.4-1.138,1.065,1.065,0,0,1,.5.772.417.417,0,0,1,0,.3,1.98,1.98,0,0,0-.117,1.056l.375.638.488.1.014-.034-.4-.24.3.021c.01-.082.027-.165.03-.249.033-.709.067-1.417.092-2.126.008-.239.061-.429.386-.451l-.484-.37-.071.42-.068.019a.833.833,0,0,1-.094-.246.462.462,0,0,0-.372-.455.9.9,0,0,1-.227-.172c.592-.131,1.131-.256,1.673-.369.2-.041.4-.041.6-.08.629-.124,1.256-.259,1.884-.388q.761-.157,1.522-.309c1.027-.207,2.054-.411,3.08-.623a2.4,2.4,0,0,1,1,.041c.539.115,1.083.2,1.625.3Zm-.824,13.324a.977.977,0,0,0-.092-.329c-.187-.259-.2-.252.113-.471l-.292-.558c.339-.236.332-.237.1-.51a.889.889,0,0,1-.095-.315c.178-.068.334-.133.258-.351a.31.31,0,0,0-.043-.038c-.255-.162-.251-.213-.037-.428a1.141,1.141,0,0,0,.144-.352c-.349-.014-.294-.271-.372-.474l-.359-.021-.37.679.3.209a3.037,3.037,0,0,1-.192.329c-.095.125-.136.244.017.336.2.121.158.226.02.365-.168.169-.162.284.017.437.141.12.153.211-.018.306a.4.4,0,0,0-.084.066c-.153.311.139.4.2.532-.088.164-.214.294-.209.418a1.392,1.392,0,0,0,.219.458c-.517.222-.088.495-.014.741-.031.051-.043.087-.067.106-.18.135-.219.258-.025.431a.244.244,0,0,1-.017.386c-.116.1-.176.231-.037.338.2.158.161.28,0,.435a.22.22,0,0,0,0,.353c.192.148.165.243,0,.4-.066.061-.056.253-.019.365a1.964,1.964,0,0,0,.256.4h.323c.119-.135.2-.231.283-.319.115-.118.134-.248,0-.341a.3.3,0,0,1-.132-.392c.124-.061.3-.115.213-.327-.3-.212-.307-.25-.078-.518.109-.128.132-.268-.038-.367s-.17-.226-.028-.311c.173-.1.127-.239.124-.353l-.256-.31.287-.219a.936.936,0,0,0-.075-.325c-.194-.276-.2-.27.079-.46m-2.367-3.839a2.032,2.032,0,0,1-.225.426c-.15.166-.169.288-.009.443s.164.207,0,.35-.173.229.034.369c.027.018.049.042.121.1-.051.1-.108.2-.161.31s-.094.2-.139.29c.295.162.346.27.19.377-.181.125-.164.271-.146.434.312.175.312.2,0,.452,0,.059-.009.126-.009.194a1.158,1.158,0,0,0,.013.128c.249.176.249.176.048.4a.36.36,0,0,0,.055.47A1.849,1.849,0,0,1,34.8,359c-.322.286-.319.315-.065.671a.248.248,0,0,1-.032.23c-.231.265-.234.284.1.55l-.3.555.316.162a2.406,2.406,0,0,1-.2.348c-.093.113-.128.286-.027.32.2.068.176.237.258.4l.316-.031.343-.525c0-.148-.009-.14-.176-.328a.3.3,0,0,1,.007-.254c.025-.056.12-.081.235-.151a1.875,1.875,0,0,0-.2-.293c-.152-.153-.149-.266.036-.393.035-.024.074-.043.092-.053.1-.256-.133-.281-.279-.425a2.009,2.009,0,0,1,.206-.305c.14-.144.137-.251-.038-.361-.044-.028-.09-.053-.145-.086.017-.252.431-.347.227-.655l-.266-.135.295-.332V357.6l-.212-.1c-.1-.237.123-.24.2-.313a.38.38,0,0,0-.308-.532l.362-.328a.853.853,0,0,0-.166-.285.246.246,0,0,1-.089-.316c.339-.2.337-.273-.01-.487a.3.3,0,0,1,.229-.419c.081-.243-.1-.284-.23-.347l-.055-.358Zm-9.985,3.012.317.349c-.089.043-.129.059-.165.081s-.09.059-.134.089a.89.89,0,0,0,0,.149,3.165,3.165,0,0,1-.045.736.4.4,0,0,0,.059.077c.23.186.221.177.022.389a.973.973,0,0,0-.132.3c.339.206.338.206.086.441a.172.172,0,0,0,0,.285c.2.206.195.209,0,.445a.83.83,0,0,0-.093.248c.331.181.33.2.063.426-.25.318.256.38.164.587-.108.09-.212.136-.244.212-.053.125.028.189.157.239a.124.124,0,0,1,.006.235c-.221.088-.177.255-.179.355l.324.456.266-.017.371-.453v-.283l-.3-.133.329-.279c0-.031.023-.107,0-.137a2.344,2.344,0,0,0-.282-.228,2.724,2.724,0,0,0,.286-.354c.119-.21-.135-.263-.2-.388.246-.389.246-.389.015-.758.143-.186.482-.4-.018-.646.351-.238.385-.49.073-.729.3-.419.314-.29.012-.669a3.438,3.438,0,0,0,.207-.358c.087-.2-.149-.232-.217-.344.353-.464.3-.389.014-.706a.643.643,0,0,1,.121-.21c.1-.078.208-.2.1-.264-.181-.111-.14-.452-.436-.407a.411.411,0,0,0-.219.126,4.148,4.148,0,0,0-.278.378l.267.4-.312.358m11.3-8.687c0,.364,0,.738,0,1.111,0,.113.048.226.046.338,0,.206-.035.411-.04.617a1.743,1.743,0,0,1,.011.49c-.138.391.046.748.016,1.14h.5a.546.546,0,0,0,.057-.177,6.031,6.031,0,0,0,.024-1.054c-.068-.27.124-.615.037-.87-.122-.357.1-.668.012-1-.009-.033.053-.084.088-.136-.357-.109-.09-.252-.025-.368-.322-.288-.39-.3-.732-.091m-.877,3.693a9.011,9.011,0,0,0,.016-1.215c-.085-.347.038-.729-.019-1.112a7.333,7.333,0,0,1,.036-1.369c-.284-.16-.641-.127-.7.075l.116.175a1.466,1.466,0,0,1-.056.376c-.087.192.064.347.048.524-.02.228-.052.455-.055.683,0,.166.048.333.052.5.01.428.006.856.01,1.283,0,.019.021.037.046.08Zm-9.919,1.326h.594c0-1-.006-1.949,0-2.9a.716.716,0,0,0-.247-.571l-.352.231Zm20.345-3.222v3.226l.5.043a.711.711,0,0,0,.047-.143c.019-.977.031-1.954.056-2.931a.448.448,0,0,0-.308-.443l-.294.247m-.722,3.232V350.24l-.324-.259-.224.25v3.264l.548-.031m-17.763.008c0-.128,0-.216,0-.3.012-.9.022-1.794.037-2.691,0-.238-.1-.409-.268-.428s-.3.146-.3.4c-.008.694-.014,1.388-.012,2.082,0,.309.025.617.04.943Zm18.8,2.1c.143-.123.169-.326.413-.255-.017-.177.116-.344-.113-.5l-.083.4-.26-.126.044.487m.785-.438c-.217.026-.261.141-.235.326.022.158.1.174.235.132Z" transform="translate(178.854 291.047)" fill="#575757"/>
    <path id="Path_262" data-name="Path 262" d="M0,636.691v-1.058H1.681c.02-.27.044-.491.053-.712q.18-4.388.362-8.777a5.162,5.162,0,0,1,.131-.69,1.64,1.64,0,0,0,0-.232l-.429.339-.265-.318-.331-.026c-.055-.217.022-.333.229-.36a8.111,8.111,0,0,1,.838-.093c.742-.018,1.484-.008,2.225-.024.63-.014,1.261-.031,1.889-.078,1.179-.089,2.356-.2,3.534-.3.224-.02.447-.051.684-.078.084-.141.164-.268.37-.274,1.114-.032,2.228-.109,3.342-.115.787,0,1.574.079,2.374.125.076.3.315.316.556.333q1.314.1,2.628.2a.339.339,0,0,1,.078.014l.474.879-.053.034-.155-.186-.488-.029-.1.248-.055.009-.06-.264-1.17-.091-.061.289-.062.006-.065-.316-.5-.029-.1.339-.12-.433-.236.165-.249-.177-.155.318-.092-.282-.528-.024-.1.31-.232-.356-.081.5-.245.137v9.887c.28.1,6.584.151,7.27.057,0-.09.017-.186.015-.283q-.068-3.294-.138-6.588c0-.169,0-.338,0-.507a.611.611,0,0,1,.211-.59c-.388-.487-.179-1.042-.191-1.6l.921,1.081c.123-.073.206-.159.293-.164a.466.466,0,0,1,.324.095c.04.038,0,.214-.059.292-.2.273-.2.268.029.522a1.272,1.272,0,0,1,.148.293l-.235.169c-.184.334.2.456.225.687-.321.261-.339.381-.088.66a.237.237,0,0,1,0,.358c-.177.188-.143.339.005.53a.4.4,0,0,1,.042.361c-.191.339-.2.348.068.641a.558.558,0,0,1,.063.136c-.052.045-.1.083-.147.127a.359.359,0,0,0,.015.53c.21.187.211.208.019.414-.164.176-.163.289,0,.455.242.242.229.341-.081.54-.006.186,0,.363.213.473.128.066.123.171.013.271-.27.248-.254.4.066.617l.092.411.369-.024.055-.368.262-.169a1.194,1.194,0,0,0-.135-.383c-.21-.256-.222-.246.052-.467v-.346l-.23-.168a.309.309,0,0,1,.108-.353c.154-.134.128-.267-.009-.434a2.827,2.827,0,0,1-.206-.337c.627-.334.067-.586-.033-.872l.275-.168a.392.392,0,0,0-.1-.427c-.233-.2-.227-.26-.018-.473a.252.252,0,0,0,0-.4c-.214-.224-.215-.274-.007-.505a.339.339,0,0,0-.021-.457c-.057-.066-.115-.131-.171-.2-.006-.007,0-.022,0-.034.323-.381.319-.49-.056-.764a.685.685,0,0,1,.064-.258c.252-.342.257-.338-.051-.593a.3.3,0,0,1,.2-.423.437.437,0,0,0-.271-.552l.686-.593.4,9.885H27.5v1.075ZM10.519,625l-.207.175-.287-.14-.072.372-.045,0-.085-.284-.521.031-.083.34-.085-.332-1.139.1-.132.313-.142-.3-.443.056-.117.21-.116-.171H6.529l-.053.255-.1-.192H5.863l-.1.3-.083-.282-.449.041-.086.3-.064,0-.139-.3-.075.009c-.076,3.351-.153,6.7-.23,10.073h7.29v-9.959l-.216-.136-.083-.464-.074,0-.155.305-.157-.373-.206.175-.272-.1-.127.321-.12-.346m4.266,2.039a1.269,1.269,0,0,1,.2-.343.269.269,0,0,0,.051-.386c-.082-.151-.175-.3-.292-.491l-.337-.016a1.622,1.622,0,0,1-.168.322c-.185.208-.207.349-.014.535a.249.249,0,0,1,.034.383c-.209.2-.169.353-.006.547a.273.273,0,0,1-.021.393c-.168.186-.168.317,0,.524.107.129.121.213-.009.339a.312.312,0,0,0-.012.494.272.272,0,0,1,.021.436.281.281,0,0,0-.01.459.3.3,0,0,1,0,.446.335.335,0,0,0-.013.5c.137.147.158.241-.009.384a.306.306,0,0,0,0,.471c.183.15.139.279.029.432a.489.489,0,0,0-.032.616.179.179,0,0,1-.056.294l-.108-.312c-.37.222-.29.556-.335.883l.2-.02.042-.51a5.052,5.052,0,0,1,.325.537.29.29,0,0,1-.04.263.409.409,0,0,0-.044.551,1.786,1.786,0,0,1,.1.211c.081.224.228.292.436.192.108-.122.229-.223.343-.332a.414.414,0,0,0,.115-.158,1.092,1.092,0,0,0-.254-1.258.216.216,0,0,1-.032-.327c.263-.34.258-.4-.091-.711a1.918,1.918,0,0,1,.185-.308.3.3,0,0,0,.028-.421c-.228-.3-.229-.3.094-.56a.932.932,0,0,0-.105-.345c-.233-.282-.243-.274.07-.472.02-.176.054-.34-.148-.469-.155-.1-.133-.253.009-.394.2-.2.2-.3.01-.528a1.165,1.165,0,0,1-.125-.28l.256-.154v-.339c-.346-.269-.346-.3,0-.564v-.329l-.3-.186M2.87,635.48c.056-.17.059-.352.146-.411a.427.427,0,0,0,.167-.5.786.786,0,0,0-.074-.062c-.212-.139-.228-.2-.035-.326s.153-.3.138-.466c-.343-.239-.341-.273.024-.634.009-.151.047-.3-.138-.406a.168.168,0,0,1,0-.3c.241-.128.2-.317.179-.528l-.25-.132c.072-.291.665-.546.093-.841-.089-.263.088-.364.232-.458.027-.175.023-.3-.136-.4-.074-.048-.081-.2-.116-.3l.278-.167c0-.187.1-.386-.157-.5-.029-.012-.019-.177.015-.251.027-.058.119-.085.18-.125v-.359l-.265-.207a3.212,3.212,0,0,1,.211-.327c.133-.161.155-.307,0-.429A.3.3,0,0,1,3.251,627c.251-.172.353-.431.179-.534-.191-.113-.162-.3-.28-.459l-.324.065a1.6,1.6,0,0,1-.156.321c-.254.306-.254.37.091.686a2.661,2.661,0,0,1-.219.361c-.115.139-.14.265.016.367s.149.234.107.4c-.253.083-.279.274-.2.5.254.168.3.265.137.354-.226.127-.182.307-.177.488.28.2.3.3.091.527-.156.176-.157.275-.009.463.166.209.152.283-.08.445a.331.331,0,0,0-.058.068c-.022.269-.026.273.144.44a.166.166,0,0,1,0,.282c-.3.281-.3.4.069.679a1.431,1.431,0,0,1-.17.318c-.173.193-.188.258-.034.448.189.232.178.307-.063.465a.669.669,0,0,0-.08.075v.32c.294.2.279.192.05.479-.074.093-.1.359-.057.389.209.13.18.34.226.53Zm10.2-7.6a2.607,2.607,0,0,1,.179-.328c.152-.2.154-.264-.019-.445a.3.3,0,0,1,0-.441c.037-.04.1-.065.12-.111a.759.759,0,0,0-.387-.759c-.435-.076-.259.441-.516.557-.031.014.02.212.038.324,0,.014.039.021.055.036.162.146.16.284-.005.44a.313.313,0,0,0,.013.522c.141.1.134.2.044.3-.269.317-.265.422.084.666a1.367,1.367,0,0,1-.141.268c-.171.205-.174.317.015.495a.276.276,0,0,1,0,.43.936.936,0,0,1-.131.091c-.009.2-.053.4.181.5.03.014.035.177,0,.229-.265.344-.264.416.072.7a.791.791,0,0,1-.086.2c-.22.274-.214.309-.01.587a.33.33,0,0,1,.021.295c-.225.379-.23.434.044.774-.286.571-.286.571,0,.844-.075.187-.22.378-.206.558a2.067,2.067,0,0,0,.3.63c.1-.027.274-.02.332-.1a2.356,2.356,0,0,0,.288-.589c.084-.228-.135-.322-.267-.462.146-.2.382-.358.251-.654l-.281-.179c.071-.113.127-.214.195-.305a.317.317,0,0,0-.013-.473c-.181-.175-.181-.249,0-.417a.382.382,0,0,0,.072-.481,1.264,1.264,0,0,0-.247-.178c.255-.275.543-.561.033-.844a.9.9,0,0,1,.081-.23c.252-.344.252-.376-.088-.677a1.39,1.39,0,0,1,.152-.285.35.35,0,0,0-.044-.559c-.108-.089-.112-.2-.028-.248.236-.135.186-.33.165-.536l-.266-.152m.772-3.439c.517.089.629.074.771-.094-.4-.179-.558-.165-.771.094" transform="translate(201 30.326)" fill="#575757"/>
    <path id="Path_263" data-name="Path 263" d="M135.021,44.9c-.175-.036-.329-.059-.477-.1-.52-.144-1.037-.3-1.56-.434a1.009,1.009,0,0,0-.463.017c-.632.153-1.259.322-1.954.5V43.066c-.666.3-1.358.3-1.871.809-.32-.09-.047-.456-.265-.615-.27.047-.089.335-.236.461l-.473-.24a7.722,7.722,0,0,1,.152-.784c.023-.078.16-.152.257-.176a1.211,1.211,0,0,0,.7-.433,2.08,2.08,0,0,1,1.2-.7,9.569,9.569,0,0,1,1.628-.255c.843-.04,1.69-.034,2.533,0a4.348,4.348,0,0,1,1.918.459,3.323,3.323,0,0,1,.774.584.983.983,0,0,0,.5.3c.376.089.41.138.462.517.05.363.1.727.151,1.129-.256-.059-.524-.036-.625-.249a2.143,2.143,0,0,1-.067-.673c-.092.072-.171.1-.176.144a2.233,2.233,0,0,0-.032.57c.034.25.276.295.467.381s.384.17.573.264a.3.3,0,0,1,.141.129c.16.387.31.779.475,1.2l-1.848-.488-.11-1.771-1.68-.537c-.135.612-.015,1.2-.094,1.8M130.8,43.292c.217-.059.39-.093.552-.154.435-.164.523-.134.749.279a4.9,4.9,0,0,0,.3.526.563.563,0,0,0,.844-.015c.129-.2.226-.414.344-.618.185-.318.293-.345.634-.208.18.072.37.118.6.189v-.863l-.416-.042-.122.328a2.931,2.931,0,0,0-1.413.142c-.326-.058-.563-.119-.8-.139s-.512,0-.764,0l-.118-.315c-.31-.009-.362,0-.381.177a7.134,7.134,0,0,0-.006.717" transform="translate(81.921 573.681)" fill="#575757"/>
    <path id="Path_264" data-name="Path 264" d="M97.8,103.953l.322-.748-.308-.18c.037-.139.031-.337.125-.416.176-.149.153-.306.136-.5l-.278-.125a1.964,1.964,0,0,1,.175-.415c.145-.2.16-.279,0-.456s-.165-.258-.021-.452a2.244,2.244,0,0,0,.192-.405l-.334-.185a1.652,1.652,0,0,1,.144-.372c.2-.286.209-.291-.087-.484v-.358l.267-.169v-.362l-.277-.125.317-.753-.266-.144a1.086,1.086,0,0,1,.073-.361c.222-.371.231-.367-.039-.72-2.159.411-4.311.88-6.471,1.3l0-.08-.527-.392c.84-.177,1.648-.346,2.454-.517,1.664-.353,3.327-.709,4.992-1.057a.975.975,0,0,1,.427-.005c1.1.284,2.2.583,3.3.872q1.552.407,3.108.8c.279.071.565.117.907.187a3.708,3.708,0,0,1-.7.566c.066,2.68.134,5.391.2,8.156l-.67-.216a1.579,1.579,0,0,0,.133-.475c-.01-.165-.149-.325-.15-.488s.124-.3.159-.456c.014-.065-.05-.16-.1-.223a.342.342,0,0,1-.02-.472.367.367,0,0,0-.023-.537.231.231,0,0,1-.023-.328c.166-.254.149-.318.007-.554a.407.407,0,0,1-.009-.332c.093-.2.17-.348-.049-.528a.284.284,0,0,1-.01-.427c.193-.164.137-.3.029-.465a1.408,1.408,0,0,1-.107-.263c.25-.247.267-.378.077-.645-.088-.124-.13-.219,0-.347a.309.309,0,0,0-.005-.472.247.247,0,0,1-.03-.4.29.29,0,0,0,.013-.441,1.884,1.884,0,0,1-.173-.366l-5.551-1.5a2.316,2.316,0,0,0-.191.337.338.338,0,0,0,.062.424.29.29,0,0,1,0,.482c-.125.117-.159.247-.046.343a.563.563,0,0,1,.158.51l-.222.148.029.333.266.152c0,.12,0,.231,0,.342-.274.2-.274.2-.062.508.154.222.116.374-.138.5-.023.183-.047.354.152.5.135.1.1.244-.028.372-.206.2-.186.253-.01.5a1.493,1.493,0,0,1,.139.4l-.266.15c.01.182-.042.349.153.489.085.061.073.257.1.373-.312.256-.327.364-.115.619.183.22.155.33-.13.483l-.056.361h-.805l-.056-.391-.263-.1" transform="translate(116.217 523.011)" fill="#575757"/>
    <path id="Path_343" data-name="Path 343" d="M99.263,103.953l-.322-.748.308-.18c-.037-.139-.031-.337-.125-.416-.176-.149-.153-.306-.136-.5l.278-.125a1.964,1.964,0,0,0-.175-.415c-.145-.2-.16-.279,0-.456s.165-.258.021-.452a2.244,2.244,0,0,1-.192-.405l.334-.185a1.652,1.652,0,0,0-.144-.372c-.2-.286-.209-.291.087-.484v-.358l-.267-.169v-.362l.277-.125-.317-.753.266-.144a1.086,1.086,0,0,0-.073-.361c-.222-.371-.231-.367.039-.72,2.159.411,4.311.88,6.471,1.3l0-.08.527-.392c-.84-.177-1.648-.346-2.454-.517-1.664-.353-3.327-.709-4.992-1.057a.975.975,0,0,0-.427-.005c-1.1.284-2.2.583-3.3.872q-1.552.407-3.108.8c-.279.071-.565.117-.907.187a3.708,3.708,0,0,0,.7.566c-.066,2.68-.134,5.391-.2,8.156l.67-.216a1.579,1.579,0,0,1-.133-.475c.01-.165.149-.325.15-.488s-.124-.3-.159-.456c-.014-.065.05-.16.1-.223a.342.342,0,0,0,.02-.472.367.367,0,0,1,.023-.537.231.231,0,0,0,.023-.328c-.166-.254-.149-.318-.007-.554a.407.407,0,0,0,.009-.332c-.093-.2-.17-.348.049-.528a.284.284,0,0,0,.01-.427c-.193-.164-.137-.3-.029-.465a1.408,1.408,0,0,0,.107-.263c-.25-.247-.267-.378-.077-.645.088-.124.13-.219,0-.347a.309.309,0,0,1,.005-.472.247.247,0,0,0,.03-.4.29.29,0,0,1-.013-.441,1.884,1.884,0,0,0,.173-.366l5.551-1.5a2.316,2.316,0,0,1,.191.337.338.338,0,0,1-.062.424.29.29,0,0,0,0,.482c.125.117.159.247.046.343a.563.563,0,0,0-.158.51l.222.148-.029.333-.266.152c0,.12,0,.231,0,.342.274.2.274.2.062.508-.154.222-.116.374.138.5.023.183.047.354-.152.5-.135.1-.1.244.028.372.206.2.186.253.01.5a1.493,1.493,0,0,0-.139.4l.266.15c-.01.182.042.349-.153.489-.085.061-.073.257-.1.373.312.256.327.364.115.619-.183.22-.155.33.13.483l.056.361h.805l.056-.391.263-.1" transform="translate(116.217 523.011)" fill="#575757"/>
    <path id="Path_265" data-name="Path 265" d="M87.718,236.98l-.213-.088c-.149-.276.255-.262.221-.5l-.227-.144a.335.335,0,0,1,.2-.418c.06-.028.087-.125.14-.206l-.33-.136.322-.576L87.6,234.8c-.1-.228.1-.306.224-.461l-.5-.651-.451.357-.41-.075-.173.31-.159-.218c-.247-.019-.356.166-.465.345-.293-.31-.373-.3-.525.053l-.554-.142-.1.3c-.307-.2-.319-.2-.609.147l-.3-.156-.223.289c-.125-.05-.248-.145-.357-.13-.09.012-.162.154-.248.245-.072-.032-.161-.077-.253-.11a.544.544,0,0,0-.154,0l-.157.244c-.136-.015-.189-.272-.356-.148a1.6,1.6,0,0,0-.244.293c-.315-.3-.351-.3-.587.131l-.4-.279-.157.415-.135-.529-.475-.294.032-.062q2.515-.555,5.029-1.112c.934-.208,1.868-.42,2.8-.644a1.945,1.945,0,0,1,.931,0c1.36.32,2.723.624,4.086.927,1.241.277,2.484.545,3.726.819.017,0,.03.03.08.085a.872.872,0,0,0-.617.773l-.07-.029-.111-.343-.333.239L95.024,235l-.234.259-.413-.326-.2.228L94,234.91l-.486.08-.113-.231c-.23-.111-.305.085-.42.192-.078-.109-.13-.256-.225-.293s-.219.055-.332.091c-.244-.351-.285-.325-.549-.108-.247-.316-.239-.409-.648-.146a.319.319,0,0,0-.368-.3l-.139.161-.464-.3-.2.214c-.142-.316-.343-.4-.59-.228-.134-.085-.26-.23-.376-.223s-.256.147-.368.247a3.263,3.263,0,0,0-.288.356c.105.067.242.112.293.2.03.052-.079.183-.125.278l-.093.007a2.193,2.193,0,0,0,.166.321c.1.138.142.248-.039.351-.147.084-.154.2,0,.267.186.079.191.226.21.4l-.281.14.338.465-.321.145a1.041,1.041,0,0,0,.122.271c.172.2.173.241-.015.412a.817.817,0,0,0-.12.219l.276.157v.229l-.282.125.336.61c-.364.157-.362.17-.155.408a1.536,1.536,0,0,1,.166.339l-.3.1-.1.3a.57.57,0,0,0-.665-.028l-.373-.371v-.254l.306-.315a1.309,1.309,0,0,0-.157-.091.7.7,0,0,0-.12-.024c-.185-.308.341-.4.187-.69-.291-.153-.3-.213-.057-.435a.949.949,0,0,0,.123-.2l-.243-.131c-.179-.3.3-.357.2-.644" transform="translate(126.573 394.901)" fill="#575757"/>
    <path id="Path_266" data-name="Path 266" d="M248.889,691.092c.029-.307-.11-.62.281-.745V686.83l-.284-.193c.181-.325.339-.64.527-.937a.792.792,0,0,1,.841-.374.876.876,0,0,1,.707.794c.015.108.027.217.042.345h.883c.027-.808-.56-1.952-1.264-2.042-.256.13-.023.586-.441.648l-.143-.742-.637.3-.049-.034c.06-.08.114-.166.181-.24a1.719,1.719,0,0,1,2.683.015,2.484,2.484,0,0,1,.643,1.527c.035.719.059,1.438.077,2.158.022.889.035,1.777.05,2.666,0,.111,0,.221,0,.367Zm3-.721a23.341,23.341,0,0,0-.034-3.544l-.8-.044a21.973,21.973,0,0,0,0,3.752l.842-.164" transform="translate(-31.045 -25.454)" fill="#575757"/>
    <path id="Path_267" data-name="Path 267" d="M106.839,518.184c-1.273.218-2.568.206-3.854.441a1.825,1.825,0,0,1-.044-.283c.058-1.731.1-3.463.187-5.193a2.22,2.22,0,0,1,1.061-1.9,1.679,1.679,0,0,1,2.622,1,2.73,2.73,0,0,1,.115.694c-.01,1.665-.035,3.329-.056,4.994,0,.066-.016.131-.031.245m-.21-1.179c.013-.112.027-.188.029-.264.018-.855.022-1.711.056-2.565a4.873,4.873,0,0,0-.224-1.562,1.055,1.055,0,0,0-.891-.814,1.389,1.389,0,0,0-1.519.913c-.122.309-.239.62-.373.97.381.19.366.561.342.941-.021.337-.014.676-.041,1.012-.033.422-.084.843-.135,1.263-.025.208.1.319.368.288.008-.1.02-.214.023-.324q.033-1.181.063-2.363a5.334,5.334,0,0,0-.005-.741,1.586,1.586,0,0,1,.328-1.17.878.878,0,0,1,1.441-.07.722.722,0,0,0-.907.255,1.361,1.361,0,0,0-.357.923c-.035,1.068-.062,2.137-.09,3.205a1.638,1.638,0,0,0,.031.241l1.862-.137M104,511.892l-.079-.029a1.228,1.228,0,0,0-.387.68,10.219,10.219,0,0,0-.166,1.329c-.051,1.415-.074,2.832-.106,4.247a.849.849,0,0,0,.029.165.271.271,0,0,0,.109-.2c.041-1.483.072-2.966.12-4.448a2.739,2.739,0,0,1,.422-1.538.656.656,0,0,0,.058-.2" transform="translate(105.026 135.621)" fill="#575757"/>
    <path id="Path_268" data-name="Path 268" d="M243.945,518.212c-.009-.09-.024-.167-.024-.244q-.025-2.432-.047-4.863a2.536,2.536,0,0,1,.316-1.23,1.475,1.475,0,0,1,1.332-.833,2.1,2.1,0,0,1,2.08,1.639,6.484,6.484,0,0,1,.1.973c.062,1.552.114,3.1.168,4.658,0,.1,0,.2,0,.29a25.623,25.623,0,0,1-3.93-.39m2.648-.911c.283-.015.38-.147.32-.381a1.424,1.424,0,0,1-.063-.321c-.012-.743-.015-1.485-.025-2.228a.569.569,0,0,1,.177-.518.27.27,0,0,0,.052-.235c-.062-.212-.155-.415-.229-.623a1.879,1.879,0,0,0-.619-.905,1.19,1.19,0,0,0-1.836.522,3.735,3.735,0,0,0-.251,1.385c.015.934.017,1.868.027,2.8,0,.087.018.173.032.29l1.87.122c.024-.048.043-.068.043-.087-.026-1.158-.042-2.317-.087-3.474a1.259,1.259,0,0,0-.4-.867.886.886,0,0,0-.907-.2.819.819,0,0,1,.931-.283,1.212,1.212,0,0,1,.678.578,2.215,2.215,0,0,1,.223,1.136c-.013,1,.026,2,.045,3,0,.088.014.177.024.288m-.432.653.046-.088a1.136,1.136,0,0,0-.288-.154c-.218-.045-.443-.058-.665-.086a1.968,1.968,0,0,1-1.018-.235v.464c.348-.182.651.02.966.044a2.579,2.579,0,0,0,.96.054m1.33-2.19-.1,0a16.859,16.859,0,0,0,.123,2.647c.062-.028.109-.062.107-.094-.04-.853-.085-1.705-.13-2.558m-.247-2.658.094,0a.591.591,0,0,0-.171-.643l.077.647" transform="translate(-26.37 135.542)" fill="#575757"/>
    <path id="Path_269" data-name="Path 269" d="M88.039,272.82l.487-.046c.135.26-.091.3-.21.409.083.1.221.185.227.283s-.108.219-.193.369c.2.215.279.477-.066.686.092.116.231.216.225.306s-.154.175-.243.265c.347.276.349.3.027.5.009.077-.01.187.035.247a.3.3,0,0,1-.015.435c-.129.157.043.278.168.381l-.238.329c.2.3.2.3-.015.767l.209.273c-.275.322-.271.384.057.68.136-.684-.024-1.357.083-2.045l2.012-.416c.02-.341.043-.7.062-1.051.025-.472.037-.945.072-1.416a1.112,1.112,0,0,1,.434-.772.845.845,0,0,1,1.4.529,3.523,3.523,0,0,1,.049.739c.007.5,0,1.008,0,1.557l2.03-.377v2.116L87.751,278.9c.01-2.043.2-4.042.288-6.077m4.274,1.174-.019.092-.643.076.229-.527a.527.527,0,0,0-.338.532c-.007.4-.016.81-.023,1.215,0,.131,0,.262,0,.407l.848-.044a2.27,2.27,0,0,0,.042-.28c.01-.439.024-.878.015-1.316a1.8,1.8,0,0,0-.1-.527.556.556,0,0,0-1.006-.114,1.136,1.136,0,0,0-.2.82,7.826,7.826,0,0,1,.011,1.178,2.908,2.908,0,0,0,.03.3l.077,0a.851.851,0,0,0,.046-.18c.017-.472.016-.945.048-1.416a1.275,1.275,0,0,1,.155-.537.306.306,0,0,1,.531-.031c.1.113.195.239.291.359m-2.454,3.474c.062-.051.121-.1.179-.148a.545.545,0,0,0,.11-.585c-.078-.215-.252-.194-.419-.177-.22.022-.438.059-.671.091l-.085,1.893.468-.1v-.767c.232.291.181.813.722.629.123-.363-.174-.562-.3-.835m1.538.564a1.154,1.154,0,0,0,0-.266c-.092-.369-.18-.739-.3-1.1-.1-.315-.166-.333-.544-.26.084.31.161.621.256.927.063.2.149.395.231.59.058.138.167.168.358.109m.7-1.826-.417.061v1.684l.417-.078Zm.2-.071a2.107,2.107,0,0,1-.085,1.719.942.942,0,0,0,.688-1.017c-.021-.355-.086-.611-.6-.7m1.283-.241a1.764,1.764,0,0,0-.306.172,1.383,1.383,0,0,0-.065,1.484.225.225,0,0,0,.341.021,3.582,3.582,0,0,1,.029-1.677m.144,1.661a.983.983,0,0,0,.591-1.055c-.044-.432-.182-.6-.525-.627a3.962,3.962,0,0,1-.067,1.682" transform="translate(119.187 357.685)" fill="#575757"/>
    <path id="Path_270" data-name="Path 270" d="M150.17,3.741a2.48,2.48,0,0,0-.436-.4,4.366,4.366,0,0,0-1.125-.515,12.35,12.35,0,0,0-5.131-.007,2.748,2.748,0,0,0-1.593.908.928.928,0,0,1,0-.213,3.084,3.084,0,0,1,1.889-2.1,5.211,5.211,0,0,1,1-.289.428.428,0,0,0,.41-.365.961.961,0,0,1,.539-.688.6.6,0,0,1,.576.008.933.933,0,0,1,.551.685c.046.255.171.315.4.353a3.684,3.684,0,0,1,2.207,1.126,2.846,2.846,0,0,1,.712,1.5" transform="translate(68.72 612)" fill="#575757"/>
    <path id="Path_271" data-name="Path 271" d="M217.5,278.09l.156-.071-.046-.1-1.424-.248v-2.073c.711-.083,1.362.328,2.067.284,0-.564,0-1.113,0-1.661a3.658,3.658,0,0,1,.006-.439.945.945,0,0,1,.617-.856.921.921,0,0,1,.989.359,1.076,1.076,0,0,1,.3.735c.016.63.037,1.26.055,1.891,0,.134,0,.269,0,.417.1.028.185.056.271.072.508.1,1.018.184,1.524.293a1.042,1.042,0,0,1,.3.192l-.011-.012v1.97c-.259-.037-.5-.06-.732-.107-1.166-.234-2.334-.463-3.494-.723-.225-.051-.387.074-.583.073Zm1.819-2.236c0-.5.006-.968,0-1.438a.874.874,0,0,0-.25-.7.933.933,0,0,0-.143-.086.586.586,0,0,1,.59.676c0,.483.01.966.02,1.449a.439.439,0,0,0,.052.136l.078,0a1.872,1.872,0,0,0,.026-.223,9.373,9.373,0,0,1,.006-1.278,1.066,1.066,0,0,0-.241-.862.513.513,0,0,0-.912.156,2.235,2.235,0,0,0-.122.69c-.009.426.018.854.034,1.28a1.122,1.122,0,0,0,.046.2Zm-1.368,1.881-.395-.915a.411.411,0,0,0,.075-.761c-.278-.219-.606-.148-.949-.252V277.5l.39.021c0-.112,0-.2,0-.286s.023-.177.043-.327c.417.845.417.845.835.831m1.165.281a1.107,1.107,0,0,0,.011-.259c-.112-.434-.213-.872-.357-1.3a.459.459,0,0,0-.472-.331.545.545,0,0,0-.011.168q.192.676.4,1.349a.354.354,0,0,0,.107.169,3.234,3.234,0,0,0,.327.2m.715.044v-1.6l-.42-.05v1.607l.42.042m1.769.294c.307.017.473-.088.507-.384a2.46,2.46,0,0,0,0-.6.456.456,0,0,0-.5-.44Zm-.292-1.55a.7.7,0,0,0-.542.872c.066.4.245.608.542.586ZM220,278.056c.477.017.606-.093.638-.53a1.564,1.564,0,0,0,.007-.268.663.663,0,0,0-.531-.621,1.709,1.709,0,0,1-.114,1.42" transform="translate(-0.56 357.587)" fill="#575757"/>
    <path id="Path_272" data-name="Path 272" d="M248.019,382.954a30.916,30.916,0,0,1-3.192-.3c-.016-.506-.038-.976-.044-1.447-.012-.89-.027-1.78-.014-2.669a2.61,2.61,0,0,1,.149-.857,1.365,1.365,0,0,1,2.179-.64,1.79,1.79,0,0,1,.792,1.392c.064,1.463.114,2.926.168,4.389a.557.557,0,0,1-.038.13m-.647-3.9a6.174,6.174,0,0,0-.231-.749,1.916,1.916,0,0,0-.379-.586.951.951,0,0,0-1.574.351,3.829,3.829,0,0,0-.213,1.117c-.025.651.013,1.305.027,1.958,0,.165.014.329.023.527l1.542.169c.01-.132.022-.208.021-.284-.007-.585-.013-1.171-.027-1.756-.008-.315-.018-.631-.048-.944a.793.793,0,0,0-.923-.82.316.316,0,0,1-.083-.032c.034-.047.056-.1.1-.126a.829.829,0,0,1,.861.073,1.2,1.2,0,0,1,.45.945c.011.878.013,1.755.021,2.633,0,.1.018.194.033.337l.329-.067a2.821,2.821,0,0,1-.1-.434c-.028-.6-.041-1.192-.067-1.788-.009-.212.007-.405.236-.521" transform="translate(-27.201 260.764)" fill="#575757"/>
    <path id="Path_273" data-name="Path 273" d="M112.99,383.13c0-.475-.012-.924,0-1.372.028-.888.068-1.776.111-2.663a4.931,4.931,0,0,1,.086-.77,1.721,1.721,0,0,1,1.827-1.364,1.354,1.354,0,0,1,1.093.937,1.609,1.609,0,0,1,.117.592c.01,1.439.005,2.878.005,4.287a14.2,14.2,0,0,1-3.242.352m.656-3.991c.085.191.192.318.19.443-.015.786-.055,1.572-.084,2.358a.608.608,0,0,0,.034.13L114.1,382c0-.926-.01-1.826.007-2.725a2.172,2.172,0,0,1,.146-.749.841.841,0,0,1,.957-.516c.139.026.261.064.251.262a2.377,2.377,0,0,1-.243,0,.483.483,0,0,0-.548.35,2.263,2.263,0,0,0-.143.617c-.047.831-.074,1.664-.106,2.5a2.333,2.333,0,0,0,.028.29,5.794,5.794,0,0,0,1.581-.218c0-.747.018-1.467-.007-2.186a8.71,8.71,0,0,0-.151-1.268.835.835,0,0,0-.778-.683,1.045,1.045,0,0,0-1.145.651c-.13.284-.218.587-.3.816m-.412,3.688.113,0v-3.06h-.02l-.093,3.057m2.008-5.451c-.538-.192-.608-.186-.788,0Z" transform="translate(95.661 260.559)" fill="#575757"/>
    <path id="Path_274" data-name="Path 274" d="M128.58,122.994a2.376,2.376,0,0,1-1.115,2.072,1.561,1.561,0,0,1-1.061.254,1.306,1.306,0,0,1-1.066-1.038,2.494,2.494,0,0,1,1.319-2.675,1.267,1.267,0,0,1,1.891.984c.023.132.021.268.031.4m-.406.142c-.011-.136-.012-.238-.028-.337a.925.925,0,0,0-1.4-.759,1.916,1.916,0,0,0-1.02,2.022.961.961,0,0,0,1.4.712,1.793,1.793,0,0,0,1.048-1.638" transform="translate(84.188 498.775)" fill="#575757"/>
    <path id="Path_275" data-name="Path 275" d="M239.435,126.342a1.841,1.841,0,0,1-.266,1.029,1.088,1.088,0,0,1-1.533.324,2.48,2.48,0,0,1-1.175-2.441,1.364,1.364,0,0,1,.083-.36,1.186,1.186,0,0,1,1.884-.612,2.326,2.326,0,0,1,1.006,2.06m-.363.022a2.109,2.109,0,0,0-.669-1.6.891.891,0,0,0-1.492.39,1.781,1.781,0,0,0,.691,2.056.829.829,0,0,0,1.327-.335,2.236,2.236,0,0,0,.143-.51" transform="translate(-19.448 496.362)" fill="#575757"/>
    <path id="Path_276" data-name="Path 276" d="M121.448,191.536l-1.686.377c0-.169,0-.279,0-.388.023-.833.039-1.666.076-2.5a1.781,1.781,0,0,1,.142-.618.766.766,0,0,1,.887-.458.714.714,0,0,1,.6.642.676.676,0,0,1,.018.1,19.514,19.514,0,0,1-.038,2.845m-.642-2.863-.036-.019c-.045.067-.126.133-.13.2-.041.793-.07,1.586-.1,2.408.307-.04.571.008.807-.219,0-.633.015-1.285-.009-1.936a1.671,1.671,0,0,0-.187-.638.342.342,0,0,0-.54-.134,1.388,1.388,0,0,0-.331.361.446.446,0,0,0-.054.5.584.584,0,0,1,.016.266c-.008.529-.02,1.057-.027,1.585a2.337,2.337,0,0,0,.026.266l.075,0a.553.553,0,0,0,.064-.17c.013-.685.023-1.37.026-2.055,0-.216.129-.509.262-.543.165-.042.373.1.493.335a.6.6,0,0,1,.026.125l-.44.1.063-.436" transform="translate(89.344 436.781)" fill="#575757"/>
    <path id="Path_277" data-name="Path 277" d="M262.263,192.012l-1.725-.361c-.009-.593-.021-1.153-.027-1.714q0-.473.007-.946a1.514,1.514,0,0,1,.045-.333.709.709,0,0,1,.6-.6.842.842,0,0,1,.891.473.718.718,0,0,1,.083.255c.045,1.054.083,2.108.126,3.226m-.593-.614h.081a1.607,1.607,0,0,0,.038-.241q.008-1.03.008-2.059a1.057,1.057,0,0,0-.044-.3.523.523,0,0,0-1.036.06,1.22,1.22,0,0,0-.024.233q.007.945.02,1.891a3.176,3.176,0,0,0,.043.333l.7.055v-2.319a.714.714,0,0,1-.7.015,2.776,2.776,0,0,1,.356-.346.273.273,0,0,1,.441.177,1.731,1.731,0,0,1,.059.432c.014.574.017,1.149.029,1.723,0,.116.021.231.032.347" transform="translate(-41.881 436.674)" fill="#575757"/>
    <path id="Path_278" data-name="Path 278" d="M232.045,184.613l-1.588-.338a1.545,1.545,0,0,1-.062-.281c-.015-.8-.028-1.595-.033-2.392a1.176,1.176,0,0,1,.067-.4c.1-.284.244-.532.595-.566a.848.848,0,0,1,.825.419.9.9,0,0,1,.151.439c.039.987.061,1.976.086,2.964a.643.643,0,0,1-.04.151m-1.4-2.892a.613.613,0,0,1,.5-.494.849.849,0,0,1,.331.717c-.009.6,0,1.192,0,1.788,0,.111-.032.251.18.288,0-.275,0-.529,0-.784,0-.426-.033-.856.008-1.278a1.063,1.063,0,0,0-.259-.806.4.4,0,0,0-.731.079,1.5,1.5,0,0,0-.15.611c-.014.55.007,1.1.016,1.653,0,.121.014.241.024.4l.7.061a.558.558,0,0,0,.037-.124c0-.675,0-1.349-.016-2.024a1.646,1.646,0,0,0-.129-.424l-.078.022.037.351-.467-.037" transform="translate(-13.773 443.588)" fill="#575757"/>
    <path id="Path_279" data-name="Path 279" d="M150.079,184.64c-.007-.1-.017-.168-.014-.234.036-.965.066-1.931.113-2.9a.907.907,0,0,1,.607-.812.751.751,0,0,1,.994.71c.029.887.005,1.775-.009,2.663,0,.079-.087.17-.154.232a.453.453,0,0,1-.214.094c-.428.083-.858.159-1.323.245m.466-.654.1.02a2.046,2.046,0,0,0,.046-.291c.012-.619.022-1.237.023-1.856a.633.633,0,0,1,.369-.627c.146.158.38.216.42.506l-.515.052.074-.293a.391.391,0,0,0-.176.265c-.031.724-.04,1.448-.034,2.18a3.58,3.58,0,0,1,.384,0c.317.039.371.012.38-.282.018-.607.03-1.214.027-1.822a1.492,1.492,0,0,0-.109-.49.506.506,0,0,0-.549-.338.964.964,0,0,0-.523.839c.036.343.062.688.074,1.033.012.367,0,.735,0,1.1" transform="translate(61.09 443.561)" fill="#575757"/>
    <path id="Path_280" data-name="Path 280" d="M305.67,276.635l.224-.339c.071-.21-.407-.418.039-.663l-.263-.474.25-.188c-.279-.352-.279-.352-.007-.6a1.032,1.032,0,0,0-.115-.15c-.138-.126-.185-.239-.027-.4a.285.285,0,0,0,.016-.267c-.162-.28-.172-.275.05-.477l-.244-.4.049-.072.553.082.285,6.04-.67-.138.184-.444-.187-.261a.533.533,0,0,0-.041-.731l.213-.411-.32-.127.011.012" transform="translate(-83.914 357.833)" fill="#575757"/>
    <path id="Path_281" data-name="Path 281" d="M240.239,76.516l1.14.4.094,1.435-1.234-.311Z" transform="translate(-22.982 540.662)" fill="#575757"/>
    <path id="Path_282" data-name="Path 282" d="M148.075,77.539l1.151-.357v1.426l-1.151.275Z" transform="translate(62.945 540.041)" fill="#575757"/>
    <path id="Path_283" data-name="Path 283" d="M330.18,636.8a.977.977,0,0,1,.746.458,3.637,3.637,0,0,0,1.055,1.085l-.22.336L330.18,636.8" transform="translate(-106.837 18.295)" fill="#575757"/>
    <path id="Path_284" data-name="Path 284" d="M346.873,635.971l-.47.258-.081.223c-.029-.026-.07-.045-.071-.067-.012-.156-.016-.314-.022-.471l-.1-.043-.16.279-.433-.55a1,1,0,0,1,1.334.37" transform="translate(-121.156 19.508)" fill="#575757"/>
    <path id="Path_285" data-name="Path 285" d="M374.7,637.592l-.408.024-.22.316-.4-.762a6.082,6.082,0,0,1,.789.009c.177.024.216.2.237.412" transform="translate(-147.383 17.955)" fill="#575757"/>
    <path id="Path_286" data-name="Path 286" d="M304.636,635.957h1.086l-.661.585-.425-.585" transform="translate(-83.021 19.079)" fill="#575757"/>
    <path id="Path_287" data-name="Path 287" d="M363.038,620.788l-.575-.164.128-.473c.391.074.458.162.447.637" transform="translate(-136.935 33.815)" fill="#575757"/>
    <path id="Path_288" data-name="Path 288" d="M208.084,371.41c.024.329.024.329-.193.4-.108-.333-.084-.389.193-.4" transform="translate(7.233 265.724)" fill="#575757"/>
    <path id="Path_289" data-name="Path 289" d="M99.911,684.94l-.654-.376c-.177.233.01.6-.36.757l-.237-.675a2.061,2.061,0,0,0-1.3,2.039H98.2c.031-.13.061-.281.1-.43.1-.37.288-.676.707-.72a.923.923,0,0,1,.9.489.363.363,0,0,1,.035.058,3.352,3.352,0,0,0,.181.435,2.556,2.556,0,0,0,.289.339l-.328.161v3.565l.237.126v.623H96.263a1.5,1.5,0,0,1-.026-.21q.054-2.381.114-4.762a2.836,2.836,0,0,1,.533-1.577A1.8,1.8,0,0,1,98.1,684a1.615,1.615,0,0,1,1.812.937M97.3,690.6l.925.181v-3.733h-.893c-.045,1.213-.038,2.4-.032,3.552" transform="translate(111.276 -25.688)" fill="#575757"/>
    <path id="Path_290" data-name="Path 290" d="M134.231,537.438a.949.949,0,0,1,.509-.986.558.558,0,0,1,.738.348,2.979,2.979,0,0,1,.113.425l-1.36.213" transform="translate(75.857 111.883)" fill="#575757"/>
    <rect id="Rectangle_773" data-name="Rectangle 773" width="0.372" height="1.214" transform="translate(211.004 650.389)" fill="#575757"/>
    <path id="Path_291" data-name="Path 291" d="M147.811,557.27v-.55l.382-.026v.575Z" transform="translate(63.191 92.977)" fill="#575757"/>
    <path id="Path_292" data-name="Path 292" d="M148.242,587.345l-.367-.017v-.563l.367-.017Z" transform="translate(63.132 64.958)" fill="#575757"/>
    <path id="Path_293" data-name="Path 293" d="M253.388,537.576l-1.328-.213a.652.652,0,0,1,.693-.8.429.429,0,0,1,.372.186.947.947,0,0,1,.263.828" transform="translate(-33.998 111.748)" fill="#575757"/>
    <path id="Path_294" data-name="Path 294" d="M252,568.983v-1.909l.434.041v1.16l-.32.085.321.1v.525Z" transform="translate(-33.951 83.3)" fill="#575757"/>
    <path id="Path_295" data-name="Path 295" d="M262.958,568.968v-1.174l.417-.029v1.2Z" transform="translate(-44.163 82.657)" fill="#575757"/>
    <path id="Path_296" data-name="Path 296" d="M252.662,557.786l-.429-.041v-.556h.429Z" transform="translate(-34.164 92.516)" fill="#575757"/>
    <path id="Path_297" data-name="Path 297" d="M262.842,588.589v-.545h.425v.571l-.425-.026" transform="translate(-44.055 63.749)" fill="#575757"/>
    <path id="Path_298" data-name="Path 298" d="M263.33,557.914l-.42-.023-.028-.578.4-.025.052.625" transform="translate(-44.093 92.423)" fill="#575757"/>
    <path id="Path_299" data-name="Path 299" d="M146.506,296.113h.505c-.018.387-.034.761-.058,1.134,0,.016-.073.028-.171.062v-1.065c-.2.342.026.756-.248,1.1a2.594,2.594,0,0,1-.028-1.232" transform="translate(64.461 335.925)" fill="#575757"/>
    <path id="Path_300" data-name="Path 300" d="M251.665,295.676l.516.043v1.153c-.174.043-.185-.055-.184-.164a6.282,6.282,0,0,0-.033-.794c-.153.315.035.684-.194.987a4.179,4.179,0,0,1-.1-1.225" transform="translate(-33.635 336.333)" fill="#575757"/>
    <path id="Path_301" data-name="Path 301" d="M251.826,285.9c.141.128.336.2.281.466h-.537c-.1-.261.053-.368.256-.466" transform="translate(-33.519 345.447)" fill="#575757"/>
    <path id="Path_302" data-name="Path 302" d="M230.471,319.807c-.059-.014-.169-.024-.17-.041-.012-.2-.008-.406-.008-.627.251.16.275.256.178.668" transform="translate(-13.708 314.457)" fill="#575757"/>
    <path id="Path_303" data-name="Path 303" d="M252.256,417.048l-.333.022v-2.065l.333.028Z" transform="translate(-33.875 225.079)" fill="#575757"/>
    <path id="Path_304" data-name="Path 304" d="M252.931,399.347l-.983-.069a.458.458,0,0,1,.146-.573.47.47,0,0,1,.564-.02.553.553,0,0,1,.274.661" transform="translate(-33.863 240.372)" fill="#575757"/>
    <path id="Path_305" data-name="Path 305" d="M259.9,432.9v-.963l.387.021c.075.343.06.366-.315.444l.185.053.177.056-.028.388Z" transform="translate(-41.317 209.289)" fill="#575757"/>
    <path id="Path_306" data-name="Path 306" d="M260.236,416.879v.388h-.428c0-.069-.012-.134-.012-.2,0-.221,0-.443,0-.706l.437.028v.281l-.353.057-.008.054.364.1" transform="translate(-41.215 223.813)" fill="#575757"/>
    <path id="Path_307" data-name="Path 307" d="M139.781,416.054l.348-.048v2.053h-.358c0-.135,0-.264,0-.392a1.242,1.242,0,0,0-.005-.251c-.039-.181-.03-.336.182-.412-.292-.2-.28-.355.074-.574-.23-.02-.334-.117-.241-.375" transform="translate(70.715 224.145)" fill="#575757"/>
    <path id="Path_308" data-name="Path 308" d="M148.838,416.422l-.276-.059-.024-.3.278-.123-.263-.125v-.878l.343-.063v2.069l-.326-.027-.02-.357.287-.138" transform="translate(62.514 225.201)" fill="#575757"/>
    <path id="Path_309" data-name="Path 309" d="M140.193,398.864h-1.021c-.027-.367.2-.7.482-.7.312,0,.531.269.538.7" transform="translate(71.248 240.784)" fill="#575757"/>
    <path id="Path_310" data-name="Path 310" d="M146.139,145.746l-.247-.533c.222.034.388.116.431.327.013.063-.064.145-.1.218l-.083-.012" transform="translate(64.981 476.614)" fill="#575757"/>
    <path id="Path_311" data-name="Path 311" d="M256.623,141.3l-.689.936-.043-.328.68-.651.051.044" transform="translate(-37.575 480.305)" fill="#575757"/>
    <path id="Path_312" data-name="Path 312" d="M267.04,210.05v-.793h.05l.073,1.131c-.122-.083-.241-.126-.242-.171-.007-.485,0-.97.012-1.505.214.115.177.226.125.338a1.624,1.624,0,0,0-.018,1" transform="translate(-47.857 417.413)" fill="#575757"/>
    <path id="Path_313" data-name="Path 313" d="M235.879,202.827a3.508,3.508,0,0,1-.076-1.708c.078.044.189.077.189.111,0,.5-.008,1.006-.022,1.51,0,.029-.058.057-.092.087" transform="translate(-18.791 424.491)" fill="#575757"/>
    <path id="Path_314" data-name="Path 314" d="M166.211,208.982v-1.274l.042,0v.7l.1.006.061-.65c.087.9.059,1.1-.2,1.221" transform="translate(46.037 418.35)" fill="#575757"/>
  </g>
</svg>
